<?xml version="1.0" encoding="UTF-8"?>
<svg width="667px" height="141px" viewBox="0 0 667 141" version="1.1" xmlns="http://www.w3.org/2000/svg" xmlns:xlink="http://www.w3.org/1999/xlink">
    <!-- Generator: Sketch 52.3 (67297) - http://www.bohemiancoding.com/sketch -->
    <title>Path Copy 5</title>
    <desc>Created with Sketch.</desc>
    <g id="Page-1" stroke="none" stroke-width="1" fill="none" fill-rule="evenodd">
        <path d="M24,43.7835212 L56.8202165,84.207202 C81.188139,114.220445 125.272784,118.796881 155.286026,94.4289583 C163.479897,87.7763082 170.063321,79.3568858 174.543763,69.8005842 L178.75,60.8291351 C191.273549,34.1177555 223.079743,22.6162461 249.791122,35.1397949 C261.900217,40.8171069 271.439145,50.8301996 276.522803,63.2002625 L281.916667,76.3251476 C293.624509,104.813836 326.210236,118.417399 354.698924,106.709557 C368.478955,101.046452 379.420228,90.1051785 385.083333,76.3251476 L390.477197,63.2002625 C401.691208,35.9132138 432.902484,22.8834426 460.189532,34.0974539 C472.559595,39.1811119 482.572688,48.7200407 488.25,60.8291351 L492.456237,69.8005842 C508.867604,104.804261 550.547732,119.876306 585.551409,103.464939 C595.107711,98.9844963 603.527133,92.4010726 610.179784,84.207202 L643,43.7835212" id="Path-Copy-5" stroke="#FFD91A" stroke-width="60"></path>
    </g>
</svg>