<svg id="icon" viewBox="0 0 1779 140" xmlns="http://www.w3.org/2000/svg"><path
  d="M21.075 51.39C40.622 70.285 48.46 107.587 91.5 110c56.89-.829 56.248-80 112.497-80 56.248 0 56.248 80 112.498 80 56.25 0 56.25-80 112.499-80 56.25 0 56.25 80 112.5 80s56.25-80 112.499-80c56.248 0 56.248 80 112.496 80 56.251 0 56.251-80 112.5-80 56.248 0 56.248 80 112.495 80 56.252 0 56.252-80 112.501-80 56.25 0 56.25 80 112.5 80s56.25-80 112.5-80 56.25 80 112.498 80c56.252 0 56.252-80 112.502-80 56.254 0 56.254 80 112.508 80 56.253 0 56.253-80 112.507-80" stroke="#FFD91A" stroke-width="60" fill="none" fill-rule="evenodd"/></svg>
